<svg xmlns="http://www.w3.org/2000/svg" xmlns:svg="http://www.w3.org/2000/svg" xmlns:xlink="http://www.w3.org/1999/xlink" id="svg2" width="686.798" height="560.103" version="1.0"><metadata id="metadata10"/><g id="layer1" transform="translate(-31.433683,-57.586494)" style="display:none"><image id="image2503" width="686.798" height="558.372" x="31.434" y="57.586" xlink:href="/Volumes/Users/dreid/Desktop/TwistedLogo.png"/></g><g id="layer2" transform="translate(-31.433683,-57.586494)" style="display:inline"><path id="path2512" d="M 273.07842,513.14183 L 224.15795,556.22105 L 305.93545,617.18909 L 708.25151,310.88857 L 374.93521,68.476711 L 43.079215,314.90443 L 310.31638,521.17355 L 575.72816,318.19013 L 370.91935,163.39702 L 166.11053,314.90443 L 308.85607,426.9834 L 450.87145,312.34888 L 372.74474,251.38084 L 372.37966,230.57139 L 478.98246,314.17427 L 308.49099,447.0627 L 140.92015,312.34888 L 371.28442,144.41295 L 601.6487,315.63458 L 308.85607,542.34808 L 273.07842,513.14183 z M 300,347.36218 L 300,329.21937 L 260,312.36218 L 280,347.36218 L 300,347.36218 z M 320,347.36218 L 320,329.21937 L 365,312.36218 L 340,347.36218 L 320,347.36218 z" style="fill:#000;fill-opacity:1;fill-rule:evenodd;stroke:#000;stroke-width:1px;stroke-linecap:butt;stroke-linejoin:miter;stroke-opacity:1"/></g></svg>