<?xml version="1.0" encoding="UTF-8" standalone="no"?>
<!-- Created with Inkscape (http://www.inkscape.org/) -->
<svg
   xmlns:dc="http://purl.org/dc/elements/1.1/"
   xmlns:cc="http://creativecommons.org/ns#"
   xmlns:rdf="http://www.w3.org/1999/02/22-rdf-syntax-ns#"
   xmlns:svg="http://www.w3.org/2000/svg"
   xmlns="http://www.w3.org/2000/svg"
   xmlns:xlink="http://www.w3.org/1999/xlink"
   xmlns:sodipodi="http://sodipodi.sourceforge.net/DTD/sodipodi-0.dtd"
   xmlns:inkscape="http://www.inkscape.org/namespaces/inkscape"
   width="744.09448819"
   height="1052.3622047"
   id="svg3852"
   sodipodi:version="0.32"
   inkscape:version="0.46"
   sodipodi:docname="LOGO.svg"
   inkscape:output_extension="org.inkscape.output.svg.inkscape">
  <defs
     id="defs3854">
    <inkscape:path-effect
       effect="bend_path"
       id="path-effect4476"
       bendpath="M -240,532.369 L 920,532.369 "
       prop_scale="1" />
    <inkscape:path-effect
       effect="curvestitching"
       id="path-effect4474"
       strokepath="M -240,532.369 L 920,532.369 "
       count="5"
       prop_scale="1" />
    <inkscape:perspective
       sodipodi:type="inkscape:persp3d"
       inkscape:vp_x="0 : 526.18109 : 1"
       inkscape:vp_y="0 : 1000 : 0"
       inkscape:vp_z="744.09448 : 526.18109 : 1"
       inkscape:persp3d-origin="372.04724 : 350.78739 : 1"
       id="perspective3860" />
    <inkscape:perspective
       id="perspective12"
       inkscape:persp3d-origin="372.04724 : 350.78739 : 1"
       inkscape:vp_z="744.09448 : 526.18109 : 1"
       inkscape:vp_y="0 : 1000 : 0"
       inkscape:vp_x="0 : 526.18109 : 1"
       sodipodi:type="inkscape:persp3d" />
    <inkscape:perspective
       id="perspective6596"
       inkscape:persp3d-origin="372.04724 : 350.78739 : 1"
       inkscape:vp_z="744.09448 : 526.18109 : 1"
       inkscape:vp_y="0 : 1000 : 0"
       inkscape:vp_x="0 : 526.18109 : 1"
       sodipodi:type="inkscape:persp3d" />
    <inkscape:perspective
       id="perspective6661"
       inkscape:persp3d-origin="372.04724 : 350.78739 : 1"
       inkscape:vp_z="744.09448 : 526.18109 : 1"
       inkscape:vp_y="0 : 1000 : 0"
       inkscape:vp_x="0 : 526.18109 : 1"
       sodipodi:type="inkscape:persp3d" />
  </defs>
  <sodipodi:namedview
     id="base"
     pagecolor="#ffffff"
     bordercolor="#666666"
     borderopacity="1.0"
     gridtolerance="10000"
     guidetolerance="10"
     objecttolerance="10"
     inkscape:pageopacity="0.0"
     inkscape:pageshadow="2"
     inkscape:zoom="2.8"
     inkscape:cx="-470.15849"
     inkscape:cy="1615.6903"
     inkscape:document-units="px"
     inkscape:current-layer="layer1"
     showgrid="true"
     inkscape:snap-global="false"
     inkscape:window-width="1680"
     inkscape:window-height="977"
     inkscape:window-x="0"
     inkscape:window-y="25"
     showguides="true">
    <inkscape:grid
       type="xygrid"
       id="grid4377" />
  </sodipodi:namedview>
  <metadata
     id="metadata3857">
    <rdf:RDF>
      <cc:Work
         rdf:about="">
        <dc:format>image/svg+xml</dc:format>
        <dc:type
           rdf:resource="http://purl.org/dc/dcmitype/StillImage" />
      </cc:Work>
    </rdf:RDF>
  </metadata>
  <g
     inkscape:label="Layer 1"
     inkscape:groupmode="layer"
     id="layer1"
     style="display:inline">
    <rect
       style="opacity:1;fill:#000000;fill-opacity:1;stroke:#195dc2;stroke-width:0;stroke-linecap:round;stroke-linejoin:miter;stroke-miterlimit:4;stroke-dasharray:none;stroke-opacity:0.96078431"
       id="rect3862"
       width="661.42859"
       height="37.142857"
       x="41.42857"
       y="120.93361" />
    <g
       id="g6538"
       transform="matrix(1.0312668,0,0,1.0312668,118.52765,722.65197)"
       style="opacity:0.55598456;fill:#cc0000;display:inline">
      <g
         transform="translate(-31.433683,-57.586494)"
         style="fill:#cc0000;display:none"
         id="g6540">
        <image
           id="image6542"
           height="558.37225"
           width="686.79785"
           y="57.586494"
           x="31.433683"
           xlink:href="/Volumes/Users/dreid/Desktop/TwistedLogo.png"
           style="fill:#cc0000" />
      </g>
      <g
         transform="translate(-31.433683,-57.586494)"
         style="fill:#cc0000;display:inline"
         id="g6544">
        <path
           style="fill:#cc0000;fill-opacity:1;fill-rule:evenodd;stroke:#000000;stroke-width:0.58183271px;stroke-linecap:butt;stroke-linejoin:miter;stroke-opacity:1"
           id="path6546"
           d="M -426.96969,762.57436 L -455.43322,787.63926 L -407.8524,823.11246 L -175.25686,645.35208 L -367.70608,503.85363 L -560.79076,647.23335 L -405.30343,767.24748 L -250.87816,649.14507 L -370.04263,559.08137 L -489.20711,647.23335 L -406.15308,712.44456 L -323.52388,645.74644 L -368.98056,610.27324 L -369.19298,598.16561 L -307.16798,646.80851 L -406.3655,724.12735 L -503.86371,645.74644 L -369.83022,548.03582 L -235.79674,647.65817 L -406.15308,779.56751 L -426.96969,762.57436 z M -411.30584,666.11833 L -411.30584,655.56224 L -434.57915,645.75418 L -422.94249,666.11833 L -411.30584,666.11833 z M -399.66918,666.11833 L -399.66918,655.56224 L -373.48671,645.75418 L -388.03253,666.11833 L -399.66918,666.11833 z"
           sodipodi:nodetypes="ccccccccccccccccccccccccccccccc" />
      </g>
      <g
         transform="translate(-31.433683,-57.586494)"
         id="g6548"
         style="fill:#cc0000" />
    </g>
    <g
       id="g6598"
       transform="matrix(1.4740306,0,0,1.4740306,-141.81923,315.37656)"
       style="fill:#33d871;fill-opacity:0.96078431">
      <g
         transform="translate(-31.433683,-57.586494)"
         style="fill:#33d871;fill-opacity:0.96078431;display:none"
         id="g6600">
        <image
           id="image2503"
           height="558.37225"
           width="686.79785"
           y="57.586494"
           x="31.433683"
           xlink:href="/Volumes/Users/dreid/Desktop/TwistedLogo.png"
           style="fill:#33d871;fill-opacity:0.96078431" />
      </g>
      <g
         transform="translate(-31.433683,-57.586494)"
         style="fill:#33d871;fill-opacity:0.96078431;display:inline"
         id="g6603">
        <path
           style="fill:#33d871;fill-opacity:0.96078431;fill-rule:evenodd;stroke:#000000;stroke-width:1px;stroke-linecap:butt;stroke-linejoin:miter;stroke-opacity:1"
           id="path2512"
           d="M 273.07842,513.14183 L 224.15795,556.22105 L 305.93545,617.18909 L 708.25151,310.88857 L 374.93521,68.476711 L 43.079215,314.90443 L 310.31638,521.17355 L 575.72816,318.19013 L 370.91935,163.39702 L 166.11053,314.90443 L 308.85607,426.9834 L 450.87145,312.34888 L 372.74474,251.38084 L 372.37966,230.57139 L 478.98246,314.17427 L 308.49099,447.0627 L 140.92015,312.34888 L 371.28442,144.41295 L 601.6487,315.63458 L 308.85607,542.34808 L 273.07842,513.14183 z M 300,347.36218 L 300,329.21937 L 260,312.36218 L 280,347.36218 L 300,347.36218 z M 320,347.36218 L 320,329.21937 L 365,312.36218 L 340,347.36218 L 320,347.36218 z" />
      </g>
      <g
         transform="translate(-31.433683,-57.586494)"
         id="layer3"
         style="fill:#33d871;fill-opacity:0.96078431" />
    </g>
    <path
       style="fill:#000000;fill-opacity:1;stroke:#195dc2;stroke-width:0;stroke-linecap:round;stroke-linejoin:miter;stroke-miterlimit:4;stroke-opacity:0.96078431"
       d="M -197.13002,372.375 L -207.84794,412.375 L -127.84794,412.375 L -202.87342,692.375 L -162.87342,692.375 L -87.847944,412.375 L 532.15206,412.375 L 457.12658,692.375 L 497.12658,692.375 L 572.15206,412.375 L 792.15206,412.375 L 717.13002,692.36218 C 763.79669,692.36218 837.13002,692.36218 857.13002,692.36218 C 865.6153,692.36218 880.21537,680.84746 882.48898,672.36218 C 887.84794,652.36218 954.83497,402.36218 957.51445,392.36218 C 959.78807,383.8769 951.3587,372.36218 942.87342,372.36218 C 922.87342,372.36218 -197.13002,372.375 -197.13002,372.375 z M 832.15206,412.375 C 832.15206,412.375 892.15549,412.36218 902.15549,412.36218 C 906.39813,412.36218 909.47601,422.36218 909.47601,422.36218 C 906.79653,432.36218 853.20691,632.36218 850.52743,642.36218 C 849.39529,646.58739 842.09079,652.36141 837.84794,652.36218 L 767.84451,652.375 L 832.15206,412.375 z M -53.206906,432.375 L -82.873416,692.375 L -22.873416,692.375 L 59.376466,497.375 L 37.126584,692.375 L 97.126584,692.375 L 206.79309,432.375 L 166.79309,432.375 L 84.543212,627.375 L 106.79309,432.375 L 46.793094,432.375 L -35.456788,627.375 L -13.206906,432.375 L -53.206906,432.375 z M 246.79309,432.375 L 177.12658,692.375 L 217.12658,692.375 L 286.79309,432.375 L 246.79309,432.375 z M 346.79653,432.36218 C 338.31124,432.36218 323.71118,443.8769 321.43757,452.36218 C 316.0786,472.36218 300.00172,532.36218 294.64276,552.36218 C 292.36914,560.84746 300.79851,572.36218 309.28379,572.36218 C 329.28379,572.36218 379.28379,572.36218 399.28379,572.36218 C 403.52643,572.36218 407.74112,578.11954 406.60431,582.36218 C 401.24535,602.36218 395.88639,622.36218 390.52743,642.36218 C 389.39062,646.60482 382.09058,652.36218 377.84794,652.36218 C 347.84794,652.36218 267.84794,652.36218 267.84794,652.36218 L 257.12658,692.375 C 257.12658,692.375 357.13002,692.36218 397.13002,692.36218 C 405.6153,692.36218 420.21537,680.84746 422.48898,672.36218 C 433.20691,632.36218 443.92483,592.36218 454.64276,552.36218 C 456.91637,543.8769 448.487,532.36218 440.00172,532.36218 C 410.00172,532.36218 370.00172,532.36218 350.00172,532.36218 C 345.75908,532.36218 341.54439,526.60482 342.6812,522.36218 C 345.36068,512.36218 350.71964,492.36218 353.39912,482.36218 C 354.53593,478.11954 361.83596,472.36218 366.0786,472.36218 C 396.0786,472.36218 476.07517,472.375 476.07517,472.375 L 486.79309,432.375 C 486.79309,432.375 366.79653,432.36218 346.79653,432.36218 z M 606.79309,432.375 L 537.12658,692.375 L 677.12658,692.375 L 687.84451,652.375 L 587.84451,652.375 L 609.28036,572.375 L 709.28036,572.375 L 719.99828,532.375 L 619.99828,532.375 L 636.07517,472.375 L 736.07517,472.375 L 746.79309,432.375 L 606.79309,432.375 z"
       id="rect4401"
       sodipodi:nodetypes="ccccccccccccssssccssssccccccccccccccccccccccsssssssccssssssssccsccccccccccccc" />
    <path
       style="fill:#000000;fill-opacity:1;stroke:#195dc2;stroke-width:0;stroke-linecap:round;stroke-linejoin:miter;stroke-miterlimit:4;stroke-opacity:0.96078431"
       d="M -2142.8426,1352.3622 L -2153.5605,1392.3622 L -2073.5605,1392.3622 L -2148.586,1672.3622 L -2108.586,1672.3622 L -2033.5605,1392.3622 L -1413.5605,1392.3622 L -1488.586,1672.3622 L -1448.586,1672.3622 L -1373.5605,1392.3622 L -1153.5605,1392.3622 L -1228.5826,1672.3494 L -1133.7143,1672.3622 L -900.47189,1494.6147 L -1094.1053,1352.3622 L -2142.8426,1352.3622 z M -1113.5605,1392.3622 L -1101.7143,1392.3622 L -961.71429,1496.3622 L -1136.2194,1632.3622 L -1177.8681,1632.3622 L -1113.5605,1392.3622 z M -1998.9195,1412.3622 L -2028.586,1672.3622 L -1968.586,1672.3622 L -1886.3361,1477.3622 L -1908.586,1672.3622 L -1848.586,1672.3622 L -1738.9195,1412.3622 L -1778.9195,1412.3622 L -1861.1694,1607.3622 L -1838.9195,1412.3622 L -1898.9195,1412.3622 L -1981.1694,1607.3622 L -1958.9195,1412.3622 L -1998.9195,1412.3622 z M -1698.9195,1412.3622 L -1768.586,1672.3622 L -1728.586,1672.3622 L -1658.9195,1412.3622 L -1698.9195,1412.3622 z M -1598.916,1412.3494 C -1607.4013,1412.3494 -1622.0014,1423.8641 -1624.275,1432.3494 C -1629.634,1452.3494 -1645.7109,1512.3494 -1651.0698,1532.3494 C -1653.3434,1540.8347 -1644.9141,1552.3494 -1636.4288,1552.3494 C -1616.4288,1552.3494 -1566.4288,1552.3494 -1546.4288,1552.3494 C -1542.1861,1552.3494 -1537.9715,1558.1068 -1539.1083,1562.3494 C -1544.4672,1582.3494 -1549.8262,1602.3494 -1555.1851,1622.3494 C -1556.3219,1626.592 -1563.622,1632.3494 -1567.8646,1632.3494 C -1597.8646,1632.3494 -1677.8646,1632.3494 -1677.8646,1632.3494 L -1688.586,1672.3622 C -1688.586,1672.3622 -1588.5826,1672.3494 -1548.5826,1672.3494 C -1540.0973,1672.3494 -1525.4972,1660.8347 -1523.2236,1652.3494 C -1512.5057,1612.3494 -1501.7877,1572.3494 -1491.0698,1532.3494 C -1488.7962,1523.8641 -1497.2256,1512.3494 -1505.7109,1512.3494 C -1535.7109,1512.3494 -1575.7109,1512.3494 -1595.7109,1512.3494 C -1599.9535,1512.3494 -1604.1682,1506.592 -1603.0314,1502.3494 C -1600.3519,1492.3494 -1594.9929,1472.3494 -1592.3134,1462.3494 C -1591.1767,1458.1068 -1583.8766,1452.3494 -1579.634,1452.3494 C -1549.634,1452.3494 -1469.6374,1452.3622 -1469.6374,1452.3622 L -1458.9195,1412.3622 C -1458.9195,1412.3622 -1578.916,1412.3494 -1598.916,1412.3494 z M -1338.9195,1412.3622 L -1408.586,1672.3622 L -1268.586,1672.3622 L -1257.8681,1632.3622 L -1357.8681,1632.3622 L -1336.4322,1552.3622 L -1236.4322,1552.3622 L -1225.7143,1512.3622 L -1325.7143,1512.3622 L -1309.6374,1452.3622 L -1209.6374,1452.3622 L -1198.9195,1412.3622 L -1338.9195,1412.3622 z"
       id="path6395"
       sodipodi:nodetypes="ccccccccccccccccccccccccccccccccccccccccccsssssssccssssssssccsccccccccccccc" />
    <g
       id="g6454"
       transform="translate(1270.8868,906.5966)"
       style="opacity:0.55598456;fill:#cc0000">
      <g
         transform="translate(-31.433683,-57.586494)"
         style="fill:#cc0000;display:none"
         id="g6456">
        <image
           id="image6458"
           height="558.37225"
           width="686.79785"
           y="57.586494"
           x="31.433683"
           xlink:href="/Volumes/Users/dreid/Desktop/TwistedLogo.png"
           style="fill:#cc0000" />
      </g>
      <g
         transform="translate(-31.433683,-57.586494)"
         style="fill:#cc0000;display:inline"
         id="g6460" />
      <g
         transform="translate(-31.433683,-57.586494)"
         id="g6464"
         style="fill:#cc0000" />
    </g>
    <g
       id="g6663"
       transform="matrix(1.5028297,0,0,1.5028297,1424.1159,572.92139)"
       style="fill:#33d871;fill-opacity:0.96078431">
      <g
         transform="translate(-31.433683,-57.586494)"
         style="fill:#33d871;fill-opacity:0.96078431;display:none"
         id="g6665">
        <image
           id="image6667"
           height="558.37225"
           width="686.79785"
           y="57.586494"
           x="31.433683"
           xlink:href="/Volumes/Users/dreid/Desktop/TwistedLogo.png"
           style="fill:#33d871;fill-opacity:0.96078431" />
      </g>
      <g
         transform="translate(-31.433683,-57.586494)"
         style="fill:#33d871;fill-opacity:0.96078431;display:inline"
         id="g6669">
        <path
           style="fill:#33d871;fill-opacity:0.96078431;fill-rule:evenodd;stroke:#000000;stroke-width:1px;stroke-linecap:butt;stroke-linejoin:miter;stroke-opacity:1"
           id="path6671"
           d="M 273.07842,513.14183 L 224.15795,556.22105 L 305.93545,617.18909 L 708.25151,310.88857 L 374.93521,68.476711 L 43.079215,314.90443 L 310.31638,521.17355 L 575.72816,318.19013 L 370.91935,163.39702 L 166.11053,314.90443 L 308.85607,426.9834 L 450.87145,312.34888 L 372.74474,251.38084 L 372.37966,230.57139 L 478.98246,314.17427 L 308.49099,447.0627 L 140.92015,312.34888 L 371.28442,144.41295 L 601.6487,315.63458 L 308.85607,542.34808 L 273.07842,513.14183 z M 300,347.36218 L 300,329.21937 L 260,312.36218 L 280,347.36218 L 300,347.36218 z M 320,347.36218 L 320,329.21937 L 365,312.36218 L 340,347.36218 L 320,347.36218 z" />
      </g>
      <g
         transform="translate(-31.433683,-57.586494)"
         id="g6673"
         style="fill:#33d871;fill-opacity:0.96078431" />
    </g>
    <path
       style="fill:#000000;fill-opacity:1;stroke:#195dc2;stroke-width:0;stroke-linecap:round;stroke-linejoin:miter;stroke-miterlimit:4;stroke-opacity:0.96078431;display:inline"
       d="M 1306.0469,739.51145 L 1298.9938,779.51145 L 1378.9938,779.51145 L 1329.6225,1059.5114 L 1369.6225,1059.5114 L 1418.9938,779.51145 L 2038.9938,779.51145 L 1989.6225,1059.5114 L 2029.6225,1059.5114 L 2078.9938,779.51145 L 2298.9938,779.51145 L 2249.6247,1059.4986 L 2389.6247,1059.4986 L 2413.1513,1039.4986 L 2462.5226,759.49863 L 2446.0491,739.49863 L 1306.0469,739.51145 z M 2338.9938,779.51145 L 2408.9961,779.49863 L 2417.2328,789.49863 L 2378.441,1009.4986 L 2366.6779,1019.4986 L 2296.6755,1019.5114 L 2338.9938,779.51145 z M 1455.4673,799.51145 L 1449.6225,1059.5114 L 1509.6225,1059.5114 L 1574.0061,864.51145 L 1569.6225,1059.5114 L 1629.6225,1059.5114 L 1715.4673,799.51145 L 1675.4673,799.51145 L 1611.0838,994.51144 L 1615.4673,799.51145 L 1555.4673,799.51145 L 1491.0838,994.51144 L 1495.4673,799.51145 L 1455.4673,799.51145 z M 1755.4673,799.51145 L 1709.6225,1059.5114 L 1749.6225,1059.5114 L 1795.4673,799.51145 L 1755.4673,799.51145 z M 1855.4697,799.49863 C 1846.9844,799.49863 1833.4392,811.01335 1831.943,819.49863 C 1828.4166,839.49863 1817.837,899.49863 1814.3104,919.49863 C 1812.8143,927.98391 1822.2987,939.49863 1830.7839,939.49863 C 1850.7839,939.49863 1900.7839,939.49863 1920.7839,939.49863 C 1925.0266,939.49863 1929.7688,945.25599 1929.0207,949.49863 C 1925.4942,969.49864 1921.9676,989.49864 1918.4411,1009.4986 C 1917.6931,1013.7412 1910.9205,1019.4986 1906.6779,1019.4986 C 1876.6779,1019.4986 1796.6779,1019.4986 1796.6779,1019.4986 L 1789.6225,1059.5114 C 1789.6225,1059.5114 1889.6248,1059.4986 1929.6248,1059.4986 C 1938.1101,1059.4986 1951.6551,1047.9839 1953.1513,1039.4986 C 1960.2044,999.49864 1967.2574,959.49864 1974.3104,919.49863 C 1975.8066,911.01335 1966.3223,899.49863 1957.837,899.49863 C 1927.837,899.49863 1887.837,899.49863 1867.837,899.49863 C 1863.5943,899.49863 1858.8521,893.74127 1859.6003,889.49863 C 1861.3635,879.49863 1864.8901,859.49863 1866.6533,849.49863 C 1867.4014,845.25599 1874.1739,839.49863 1878.4166,839.49863 C 1908.4166,839.49863 1988.4142,839.51145 1988.4142,839.51145 L 1995.4673,799.51145 C 1995.4673,799.51145 1875.4697,799.49863 1855.4697,799.49863 z M 2115.4673,799.51145 L 2069.6225,1059.5114 L 2209.6225,1059.5114 L 2216.6755,1019.5114 L 2116.6755,1019.5114 L 2130.7816,939.51145 L 2230.7816,939.51145 L 2237.8347,899.51145 L 2137.8347,899.51145 L 2148.4142,839.51145 L 2248.4142,839.51145 L 2255.4673,799.51145 L 2115.4673,799.51145 z"
       id="path6607"
       sodipodi:nodetypes="ccccccccccccccccccccccccccccccccccccccccccccsssssssccssssssssccsccccccccccccc" />
    <text
       xml:space="preserve"
       style="font-size:36px;font-style:normal;font-variant:normal;font-weight:normal;font-stretch:normal;fill:#000000;fill-opacity:1;stroke:none;stroke-width:1px;stroke-linecap:butt;stroke-linejoin:miter;stroke-opacity:1;font-family:'Should\'ve Known';-inkscape-font-specification:'Should\'ve Known'"
       x="-589.92908"
       y="-612.3692"
       id="text6675"><tspan
         sodipodi:role="line"
         x="-589.92908"
         y="-612.3692"
         id="tspan6683">TWISTED</tspan></text>
    <text
       xml:space="preserve"
       style="font-size:20px;font-style:normal;font-variant:normal;font-weight:normal;font-stretch:normal;fill:#000000;fill-opacity:1;stroke:none;stroke-width:1px;stroke-linecap:butt;stroke-linejoin:miter;stroke-opacity:1;font-family:Knuckle Down;-inkscape-font-specification:Knuckle Down"
       x="-565.71429"
       y="-553.70923"
       id="text6687"><tspan
         sodipodi:role="line"
         id="tspan6689"
         x="-565.71429"
         y="-553.70923">TWISTED</tspan><tspan
         sodipodi:role="line"
         x="-565.71429"
         y="-528.70923"
         id="tspan6691">Twisted</tspan><tspan
         sodipodi:role="line"
         x="-565.71429"
         y="-503.70923"
         id="tspan6693">twisted</tspan><tspan
         sodipodi:role="line"
         x="-565.71429"
         y="-478.70923"
         id="tspan6695">TwisTEd</tspan></text>
    <text
       xml:space="preserve"
       style="font-size:20px;font-style:normal;font-variant:normal;font-weight:normal;font-stretch:normal;fill:#000000;fill-opacity:1;stroke:none;stroke-width:1px;stroke-linecap:butt;stroke-linejoin:miter;stroke-opacity:1;font-family:Silicon Carne;-inkscape-font-specification:Silicon Carne"
       x="-566.42859"
       y="-588.35211"
       id="text6697"><tspan
         sodipodi:role="line"
         id="tspan6699"
         x="-566.42859"
         y="-588.35211">twisted</tspan></text>
  </g>
  <g
     inkscape:groupmode="layer"
     id="layer2"
     style="display:inline">
    <g
       id="g6383"
       transform="translate(1269.4583,906.5966)"
       style="opacity:0.55598456;fill:#cc0000;display:inline">
      <g
         transform="translate(-31.433683,-57.586494)"
         style="fill:#cc0000;display:none"
         id="g6385">
        <image
           id="image6387"
           height="558.37225"
           width="686.79785"
           y="57.586494"
           x="31.433683"
           xlink:href="/Volumes/Users/dreid/Desktop/TwistedLogo.png"
           style="fill:#cc0000" />
      </g>
      <g
         transform="translate(-31.433683,-57.586494)"
         style="fill:#cc0000;display:inline"
         id="g6389">
        <path
           style="fill:#cc0000;fill-opacity:1;fill-rule:evenodd;stroke:#000000;stroke-width:0.58183271px;stroke-linecap:butt;stroke-linejoin:miter;stroke-opacity:1"
           id="path6391"
           d="M -426.96969,762.57436 L -455.43322,787.63926 L -407.8524,823.11246 L -175.25686,645.35208 L -367.70608,503.85363 L -560.79076,647.23335 L -405.30343,767.24748 L -250.87816,649.14507 L -370.04263,559.08137 L -489.20711,647.23335 L -406.15308,712.44456 L -323.52388,645.74644 L -368.98056,610.27324 L -369.19298,598.16561 L -307.16798,646.80851 L -406.3655,724.12735 L -503.86371,645.74644 L -369.83022,548.03582 L -235.79674,647.65817 L -406.15308,779.56751 L -426.96969,762.57436 z M -411.30584,666.11833 L -411.30584,655.56224 L -434.57915,645.75418 L -422.94249,666.11833 L -411.30584,666.11833 z M -399.66918,666.11833 L -399.66918,655.56224 L -373.48671,645.75418 L -388.03253,666.11833 L -399.66918,666.11833 z"
           sodipodi:nodetypes="ccccccccccccccccccccccccccccccc" />
      </g>
      <g
         transform="translate(-31.433683,-57.586494)"
         id="g6393"
         style="fill:#cc0000" />
    </g>
    <path
       style="display:inline;opacity:1;fill:#000000;fill-opacity:1;stroke:#195dc2;stroke-width:0;stroke-linecap:round;stroke-linejoin:miter;stroke-miterlimit:4;stroke-opacity:0.96078430999999997"
       d="M -177.125,1352.375 L -187.84375,1392.375 L -107.84375,1392.375 L -182.875,1672.375 L -142.875,1672.375 L -67.84375,1392.375 L 552.15625,1392.375 L 477.125,1672.375 L 517.125,1672.375 L 592.15625,1392.375 L 812.15625,1392.375 L 737.125,1672.3438 L 832,1672.375 L 1065.25,1494.625 L 871.59375,1352.375 L -177.125,1352.375 z M 852.15625,1392.375 L 864,1392.375 L 1004,1496.375 L 829.5,1632.375 L 787.84375,1632.375 L 819.25,1515.125 L 816.5,1515.125 L 804.875,1494.75 L 822.71875,1502.2812 L 852.15625,1392.375 z M 366.8125,1412.3438 C 358.3272,1412.3438 343.71112,1423.8584 341.4375,1432.3438 C 336.07855,1452.3438 320.01521,1512.3438 314.65625,1532.3438 C 312.38263,1540.8291 320.79597,1552.3438 329.28125,1552.3438 C 349.28124,1552.3438 399.28125,1552.3438 419.28125,1552.3438 C 423.52388,1552.3438 427.73055,1558.1012 426.59375,1562.3438 C 421.23479,1582.3438 415.89021,1602.3438 410.53125,1622.3438 C 409.39445,1626.5864 402.08639,1632.3438 397.84375,1632.3438 C 367.84374,1632.3438 287.84375,1632.3438 287.84375,1632.3438 L 277.125,1672.375 C 277.125,1672.375 377.125,1672.3438 417.125,1672.3438 C 425.61027,1672.3438 440.22638,1660.8291 442.5,1652.3438 C 453.21793,1612.3438 463.93832,1572.3438 474.65625,1532.3438 C 476.92987,1523.8585 468.48528,1512.3438 460,1512.3438 C 430.00001,1512.3438 390,1512.3438 370,1512.3438 C 365.75737,1512.3438 361.5507,1506.5864 362.6875,1502.3438 C 365.36697,1492.3438 370.72676,1472.3438 373.40625,1462.3438 C 374.54303,1458.1012 381.85111,1452.3438 386.09375,1452.3438 C 416.09375,1452.3438 496.0625,1452.375 496.0625,1452.375 L 506.78125,1412.375 C 506.78126,1412.375 386.8125,1412.3438 366.8125,1412.3438 z M -33.21875,1412.375 L -62.875,1672.375 L -2.875,1672.375 L 79.375,1477.375 L 57.125,1672.375 L 117.125,1672.375 L 226.78125,1412.375 L 186.78125,1412.375 L 104.53125,1607.375 L 126.78125,1412.375 L 66.78125,1412.375 L -15.46875,1607.375 L 6.78125,1412.375 L -33.21875,1412.375 z M 266.78125,1412.375 L 197.125,1672.375 L 237.125,1672.375 L 306.78125,1412.375 L 266.78125,1412.375 z M 626.78125,1412.375 L 557.125,1672.375 L 697.125,1672.375 L 707.84375,1632.375 L 607.84375,1632.375 L 629.28125,1552.375 L 729.28125,1552.375 L 740,1512.375 L 640,1512.375 L 656.0625,1452.375 L 756.0625,1452.375 L 766.78125,1412.375 L 626.78125,1412.375 z"
       id="rect6441"
       sodipodi:nodetypes="cccccccccccccccccccccccccccsssssssccssssssssccccccccccccccccccccccccccccccccccc" />
  </g>
</svg>
