<svg xmlns="http://www.w3.org/2000/svg" xmlns:svg="http://www.w3.org/2000/svg" xmlns:xlink="http://www.w3.org/1999/xlink" id="svg2" width="192" height="120" version="1.0"><defs id="defs4"><linearGradient id="linearGradient3170"><stop style="stop-color:#8bad0d;stop-opacity:1" id="stop3172" offset="0"/><stop style="stop-color:#9fc50e;stop-opacity:.39215687" id="stop3174" offset="1"/></linearGradient><linearGradient id="linearGradient3161"><stop style="stop-color:#8bad0d;stop-opacity:1" id="stop3163" offset="0"/><stop style="stop-color:#647d09;stop-opacity:.96078432" id="stop3165" offset="1"/></linearGradient><linearGradient id="linearGradient3167" x1="-2.891" x2="106.761" y1="-7.001" y2="78.853" gradientUnits="userSpaceOnUse" xlink:href="#linearGradient3161"/><linearGradient id="linearGradient3176" x1="172.375" x2="63.834" y1="126.005" y2="5.232" gradientUnits="userSpaceOnUse" xlink:href="#linearGradient3170"/><filter id="filter3263"><feGaussianBlur id="feGaussianBlur3265" stdDeviation="10.595"/></filter><filter id="filter3318"><feGaussianBlur id="feGaussianBlur3320" stdDeviation=".282"/></filter></defs><metadata id="metadata7"/><g id="layer1"><rect style="opacity:1;fill:url(#linearGradient3167);fill-opacity:1;stroke:#195dc2;stroke-width:0;stroke-linecap:round;stroke-linejoin:miter;stroke-miterlimit:4;stroke-dasharray:none;stroke-opacity:.96078430999999997" id="rect3157" width="213.745" height="129.893" x="-8.674" y="-4.555"/><path style="fill:url(#linearGradient3176);fill-opacity:1;stroke:#195dc2;stroke-width:0;stroke-linecap:round;stroke-linejoin:miter;stroke-miterlimit:4;stroke-opacity:.96078430999999997" id="rect3159" d="M -13.789973,85.969907 C -6.4478998,74.137685 -11.312169,61.724883 16.737022,52.607071 C 44.786213,43.489258 118.12406,52.579382 156.97215,30.810017 C 188.64906,13.059174 190.66859,-13.000953 211.7428,-10.337481 C 254.48433,-4.9355772 216.19118,128.00708 216.19118,128.00708 L -15.346905,128.00708 C -15.346905,128.00708 -23.574478,101.73827 -13.789973,85.969907 z"/><g style="opacity:.3;filter:url(#filter3263)" id="g3267" transform="matrix(0.1155706,2.2913583e-2,-2.4542316e-2,9.0542013e-2,115.14008,58.349925)"><g style="display:none" id="g3269" transform="translate(-31.433683,-57.586494)"><image id="image3271" width="686.798" height="558.372" x="31.434" y="57.586" xlink:href="/Volumes/Users/dreid/Desktop/TwistedLogo.png"/></g><g style="display:inline" id="g3273" transform="translate(-31.433683,-57.586494)"><path style="fill:#000;fill-opacity:1;fill-rule:evenodd;stroke:#000;stroke-width:1px;stroke-linecap:butt;stroke-linejoin:miter;stroke-opacity:1" id="path3275" d="M 273.07842,513.14183 L 224.15795,556.22105 L 305.93545,617.18909 L 708.25151,310.88857 L 374.93521,68.476711 L 43.079215,314.90443 L 310.31638,521.17355 L 575.72816,318.19013 L 370.91935,163.39702 L 166.11053,314.90443 L 308.85607,426.9834 L 450.87145,312.34888 L 372.74474,251.38084 L 372.37966,230.57139 L 478.98246,314.17427 L 308.49099,447.0627 L 140.92015,312.34888 L 371.28442,144.41295 L 601.6487,315.63458 L 308.85607,542.34808 L 273.07842,513.14183 z M 300,347.36218 L 300,329.21937 L 260,312.36218 L 280,347.36218 L 300,347.36218 z M 320,347.36218 L 320,329.21937 L 365,312.36218 L 340,347.36218 L 320,347.36218 z"/></g></g><g id="g3247" transform="matrix(0.117041,1.716753e-2,-1.716753e-2,0.117041,109.63235,43.075278)" style="filter:url(#filter3263);opacity:.8"><g id="g3249" transform="translate(-31.433683,-57.586494)" style="display:none"><image id="image3251" width="686.798" height="558.372" x="31.434" y="57.586" xlink:href="/Volumes/Users/dreid/Desktop/TwistedLogo.png"/></g><g id="g3253" transform="translate(-31.433683,-57.586494)" style="display:inline"><path id="path3255" d="M 273.07842,513.14183 L 224.15795,556.22105 L 305.93545,617.18909 L 708.25151,310.88857 L 374.93521,68.476711 L 43.079215,314.90443 L 310.31638,521.17355 L 575.72816,318.19013 L 370.91935,163.39702 L 166.11053,314.90443 L 308.85607,426.9834 L 450.87145,312.34888 L 372.74474,251.38084 L 372.37966,230.57139 L 478.98246,314.17427 L 308.49099,447.0627 L 140.92015,312.34888 L 371.28442,144.41295 L 601.6487,315.63458 L 308.85607,542.34808 L 273.07842,513.14183 z M 300,347.36218 L 300,329.21937 L 260,312.36218 L 280,347.36218 L 300,347.36218 z M 320,347.36218 L 320,329.21937 L 365,312.36218 L 340,347.36218 L 320,347.36218 z" style="fill:#000;fill-opacity:1;fill-rule:evenodd;stroke:#000;stroke-width:1px;stroke-linecap:butt;stroke-linejoin:miter;stroke-opacity:1"/></g></g><g id="g3239" transform="matrix(0.117041,1.716753e-2,-1.716753e-2,0.117041,109.63235,43.075278)"><g style="display:none" id="g3241" transform="translate(-31.433683,-57.586494)"><image id="image2503" width="686.798" height="558.372" x="31.434" y="57.586" xlink:href="/Volumes/Users/dreid/Desktop/TwistedLogo.png"/></g><g style="display:inline" id="layer2" transform="translate(-31.433683,-57.586494)"><path style="fill:#000;fill-opacity:1;fill-rule:evenodd;stroke:#000;stroke-width:1px;stroke-linecap:butt;stroke-linejoin:miter;stroke-opacity:1" id="path2512" d="M 273.07842,513.14183 L 224.15795,556.22105 L 305.93545,617.18909 L 708.25151,310.88857 L 374.93521,68.476711 L 43.079215,314.90443 L 310.31638,521.17355 L 575.72816,318.19013 L 370.91935,163.39702 L 166.11053,314.90443 L 308.85607,426.9834 L 450.87145,312.34888 L 372.74474,251.38084 L 372.37966,230.57139 L 478.98246,314.17427 L 308.49099,447.0627 L 140.92015,312.34888 L 371.28442,144.41295 L 601.6487,315.63458 L 308.85607,542.34808 L 273.07842,513.14183 z M 300,347.36218 L 300,329.21937 L 260,312.36218 L 280,347.36218 L 300,347.36218 z M 320,347.36218 L 320,329.21937 L 365,312.36218 L 340,347.36218 L 320,347.36218 z"/></g></g><text style="font-size:36px;font-style:normal;font-variant:normal;font-weight:400;font-stretch:normal;fill:#000;fill-opacity:1;stroke:none;stroke-width:1px;stroke-linecap:butt;stroke-linejoin:miter;stroke-opacity:1;font-family:'Should\'ve Known';-inkscape-font-specification:'Should\'ve Known'" id="text3322" x="4.226" y="38.372" xml:space="preserve"><tspan id="tspan3324" x="4.226" y="38.372">TWISTED</tspan></text></g></svg>