<?xml version="1.0" encoding="UTF-8" standalone="no"?>
<!-- Created with Inkscape (http://www.inkscape.org/) -->
<svg
   xmlns:dc="http://purl.org/dc/elements/1.1/"
   xmlns:cc="http://creativecommons.org/ns#"
   xmlns:rdf="http://www.w3.org/1999/02/22-rdf-syntax-ns#"
   xmlns:svg="http://www.w3.org/2000/svg"
   xmlns="http://www.w3.org/2000/svg"
   xmlns:xlink="http://www.w3.org/1999/xlink"
   xmlns:sodipodi="http://sodipodi.sourceforge.net/DTD/sodipodi-0.dtd"
   xmlns:inkscape="http://www.inkscape.org/namespaces/inkscape"
   width="192"
   height="120"
   id="svg2"
   sodipodi:version="0.32"
   inkscape:version="0.46"
   version="1.0"
   sodipodi:docname="wallpaper.svg"
   inkscape:output_extension="org.inkscape.output.svg.inkscape">
  <defs
     id="defs4">
    <linearGradient
       id="linearGradient3170">
      <stop
         style="stop-color:#8bad0d;stop-opacity:1;"
         offset="0"
         id="stop3172" />
      <stop
         style="stop-color:#676767;stop-opacity:1;"
         offset="1"
         id="stop3174" />
    </linearGradient>
    <linearGradient
       id="linearGradient3161">
      <stop
         style="stop-color:#8bad0d;stop-opacity:1;"
         offset="0"
         id="stop3163" />
      <stop
         style="stop-color:#647d09;stop-opacity:0.96078432;"
         offset="1"
         id="stop3165" />
    </linearGradient>
    <inkscape:perspective
       sodipodi:type="inkscape:persp3d"
       inkscape:vp_x="0 : 526.18109 : 1"
       inkscape:vp_y="0 : 1000 : 0"
       inkscape:vp_z="744.09448 : 526.18109 : 1"
       inkscape:persp3d-origin="372.04724 : 350.78739 : 1"
       id="perspective10" />
    <inkscape:perspective
       id="perspective12"
       inkscape:persp3d-origin="372.04724 : 350.78739 : 1"
       inkscape:vp_z="744.09448 : 526.18109 : 1"
       inkscape:vp_y="0 : 1000 : 0"
       inkscape:vp_x="0 : 526.18109 : 1"
       sodipodi:type="inkscape:persp3d" />
    <filter
       inkscape:collect="always"
       id="filter3263">
      <feGaussianBlur
         inkscape:collect="always"
         stdDeviation="10.595213"
         id="feGaussianBlur3265" />
    </filter>
    <filter
       inkscape:collect="always"
       id="filter3228">
      <feGaussianBlur
         inkscape:collect="always"
         stdDeviation="0.75843"
         id="feGaussianBlur3230" />
    </filter>
    <filter
       inkscape:collect="always"
       id="filter3236">
      <feGaussianBlur
         inkscape:collect="always"
         stdDeviation="1.9754065"
         id="feGaussianBlur3238" />
    </filter>
    <radialGradient
       inkscape:collect="always"
       xlink:href="#linearGradient3170"
       id="radialGradient3240"
       cx="106.69128"
       cy="58.74025"
       fx="106.69128"
       fy="58.74025"
       r="126.77382"
       gradientTransform="matrix(-5.5547156e-2,-0.6506275,0.7751905,-6.6182083e-2,67.082793,132.04408)"
       gradientUnits="userSpaceOnUse" />
    <radialGradient
       inkscape:collect="always"
       xlink:href="#linearGradient3161"
       id="radialGradient3323"
       cx="98.197945"
       cy="60.391731"
       fx="98.197945"
       fy="60.391731"
       r="106.87228"
       gradientTransform="matrix(1.2018731,-8.9490123e-2,4.5123771e-2,0.6060227,-22.548623,32.580718)"
       gradientUnits="userSpaceOnUse" />
  </defs>
  <sodipodi:namedview
     id="base"
     pagecolor="#ffffff"
     bordercolor="#666666"
     borderopacity="1.0"
     gridtolerance="10000"
     guidetolerance="10"
     objecttolerance="10"
     inkscape:pageopacity="0.0"
     inkscape:pageshadow="2"
     inkscape:zoom="4.4960206"
     inkscape:cx="119.13611"
     inkscape:cy="61.650281"
     inkscape:document-units="px"
     inkscape:current-layer="layer1"
     showgrid="false"
     borderlayer="true"
     inkscape:window-width="1680"
     inkscape:window-height="922"
     inkscape:window-x="0"
     inkscape:window-y="25" />
  <metadata
     id="metadata7">
    <rdf:RDF>
      <cc:Work
         rdf:about="">
        <dc:format>image/svg+xml</dc:format>
        <dc:type
           rdf:resource="http://purl.org/dc/dcmitype/StillImage" />
      </cc:Work>
    </rdf:RDF>
  </metadata>
  <g
     inkscape:label="Layer 1"
     inkscape:groupmode="layer"
     id="layer1">
    <path
       style="fill:url(#radialGradient3240);fill-opacity:1;stroke:#656565;stroke-width:3;stroke-linecap:round;stroke-linejoin:miter;stroke-miterlimit:4;stroke-opacity:1;stroke-dasharray:none;filter:url(#filter3236)"
       d="M -13.789973,85.969907 C -6.4478998,74.137685 -11.312169,61.724883 16.737022,52.607071 C 44.786213,43.489258 118.12406,52.579382 156.97215,30.810017 C 188.64906,13.059174 190.66859,-13.000953 211.7428,-10.337481 C 254.48433,-4.9355772 216.19118,128.00708 216.19118,128.00708 L -15.346905,128.00708 C -15.346905,128.00708 -23.574478,101.73827 -13.789973,85.969907 z"
       id="rect3159"
       sodipodi:nodetypes="czssccs" />
    <rect
       style="opacity:1;fill:url(#radialGradient3323);fill-opacity:1.0;stroke:#195dc2;stroke-width:0;stroke-linecap:round;stroke-linejoin:miter;stroke-miterlimit:4;stroke-dasharray:none;stroke-opacity:0.96078430999999997"
       id="rect3157"
       width="213.74457"
       height="129.89264"
       x="-8.6743374"
       y="-4.5545888" />
    <g
       style="opacity:0.3;filter:url(#filter3263)"
       id="g3267"
       transform="matrix(0.1155706,2.2913583e-2,-2.4542316e-2,9.0542013e-2,115.14008,58.349925)"
       inkscape:transform-center-x="-22.183345"
       inkscape:transform-center-y="-35.642584">
      <g
         transform="translate(-31.433683,-57.586494)"
         style="display:none"
         id="g3269">
        <image
           id="image3271"
           height="558.37225"
           width="686.79785"
           y="57.586494"
           x="31.433683"
           xlink:href="/Volumes/Users/dreid/Desktop/TwistedLogo.png" />
      </g>
      <g
         transform="translate(-31.433683,-57.586494)"
         style="display:inline"
         id="g3273">
        <path
           style="fill:#000000;fill-opacity:1;fill-rule:evenodd;stroke:#000000;stroke-width:1px;stroke-linecap:butt;stroke-linejoin:miter;stroke-opacity:1"
           id="path3275"
           d="M 273.07842,513.14183 L 224.15795,556.22105 L 305.93545,617.18909 L 708.25151,310.88857 L 374.93521,68.476711 L 43.079215,314.90443 L 310.31638,521.17355 L 575.72816,318.19013 L 370.91935,163.39702 L 166.11053,314.90443 L 308.85607,426.9834 L 450.87145,312.34888 L 372.74474,251.38084 L 372.37966,230.57139 L 478.98246,314.17427 L 308.49099,447.0627 L 140.92015,312.34888 L 371.28442,144.41295 L 601.6487,315.63458 L 308.85607,542.34808 L 273.07842,513.14183 z M 300,347.36218 L 300,329.21937 L 260,312.36218 L 280,347.36218 L 300,347.36218 z M 320,347.36218 L 320,329.21937 L 365,312.36218 L 340,347.36218 L 320,347.36218 z" />
      </g>
      <g
         transform="translate(-31.433683,-57.586494)"
         id="g3277" />
    </g>
    <g
       inkscape:transform-center-y="-47.354505"
       inkscape:transform-center-x="-19.239487"
       transform="matrix(0.117041,1.716753e-2,-1.716753e-2,0.117041,109.63235,43.075278)"
       id="g3247"
       style="filter:url(#filter3263);opacity:0.8">
      <g
         id="g3249"
         style="display:none"
         transform="translate(-31.433683,-57.586494)">
        <image
           xlink:href="/Volumes/Users/dreid/Desktop/TwistedLogo.png"
           x="31.433683"
           y="57.586494"
           width="686.79785"
           height="558.37225"
           id="image3251" />
      </g>
      <g
         id="g3253"
         style="display:inline"
         transform="translate(-31.433683,-57.586494)">
        <path
           d="M 273.07842,513.14183 L 224.15795,556.22105 L 305.93545,617.18909 L 708.25151,310.88857 L 374.93521,68.476711 L 43.079215,314.90443 L 310.31638,521.17355 L 575.72816,318.19013 L 370.91935,163.39702 L 166.11053,314.90443 L 308.85607,426.9834 L 450.87145,312.34888 L 372.74474,251.38084 L 372.37966,230.57139 L 478.98246,314.17427 L 308.49099,447.0627 L 140.92015,312.34888 L 371.28442,144.41295 L 601.6487,315.63458 L 308.85607,542.34808 L 273.07842,513.14183 z M 300,347.36218 L 300,329.21937 L 260,312.36218 L 280,347.36218 L 300,347.36218 z M 320,347.36218 L 320,329.21937 L 365,312.36218 L 340,347.36218 L 320,347.36218 z"
           id="path3255"
           style="fill:#000000;fill-opacity:1;fill-rule:evenodd;stroke:#000000;stroke-width:1px;stroke-linecap:butt;stroke-linejoin:miter;stroke-opacity:1" />
      </g>
      <g
         id="g3257"
         transform="translate(-31.433683,-57.586494)" />
    </g>
    <g
       id="g3239"
       transform="matrix(0.117041,1.716753e-2,-1.716753e-2,0.117041,109.63235,43.075278)"
       inkscape:transform-center-x="-19.239487"
       inkscape:transform-center-y="-47.354505">
      <g
         transform="translate(-31.433683,-57.586494)"
         style="display:none"
         id="g3241">
        <image
           id="image2503"
           height="558.37225"
           width="686.79785"
           y="57.586494"
           x="31.433683"
           xlink:href="/Volumes/Users/dreid/Desktop/TwistedLogo.png" />
      </g>
      <g
         transform="translate(-31.433683,-57.586494)"
         style="display:inline"
         id="layer2">
        <path
           style="fill:#000000;fill-opacity:1;fill-rule:evenodd;stroke:#000000;stroke-width:1px;stroke-linecap:butt;stroke-linejoin:miter;stroke-opacity:1"
           id="path2512"
           d="M 273.07842,513.14183 L 224.15795,556.22105 L 305.93545,617.18909 L 708.25151,310.88857 L 374.93521,68.476711 L 43.079215,314.90443 L 310.31638,521.17355 L 575.72816,318.19013 L 370.91935,163.39702 L 166.11053,314.90443 L 308.85607,426.9834 L 450.87145,312.34888 L 372.74474,251.38084 L 372.37966,230.57139 L 478.98246,314.17427 L 308.49099,447.0627 L 140.92015,312.34888 L 371.28442,144.41295 L 601.6487,315.63458 L 308.85607,542.34808 L 273.07842,513.14183 z M 300,347.36218 L 300,329.21937 L 260,312.36218 L 280,347.36218 L 300,347.36218 z M 320,347.36218 L 320,329.21937 L 365,312.36218 L 340,347.36218 L 320,347.36218 z" />
      </g>
      <g
         transform="translate(-31.433683,-57.586494)"
         id="layer3" />
    </g>
    <text
       id="text2418"
       y="103.541"
       x="17.126255"
       style="font-size:24px;font-style:normal;font-variant:normal;font-weight:normal;font-stretch:normal;fill:#000000;fill-opacity:1;stroke:none;stroke-width:1px;stroke-linecap:butt;stroke-linejoin:miter;stroke-opacity:1;font-family:Knuckle Down;-inkscape-font-specification:Knuckle Down;filter:url(#filter3228)"
       xml:space="preserve"><tspan
         y="103.541"
         x="17.126255"
         id="tspan2420"
         sodipodi:role="line">TwisTEd</tspan></text>
    <text
       xml:space="preserve"
       style="font-size:24px;font-style:normal;font-variant:normal;font-weight:normal;font-stretch:normal;fill:#000000;fill-opacity:1;stroke:none;stroke-width:1px;stroke-linecap:butt;stroke-linejoin:miter;stroke-opacity:1;font-family:Knuckle Down;-inkscape-font-specification:Knuckle Down"
       x="17.126255"
       y="103.541"
       id="text2414"><tspan
         sodipodi:role="line"
         id="tspan2416"
         x="17.126255"
         y="103.541">TwisTEd</tspan></text>
  </g>
</svg>
