<svg xmlns="http://www.w3.org/2000/svg" xmlns:svg="http://www.w3.org/2000/svg" id="svg5382" width="297mm" height="210mm" version="1.1"><defs id="defs5384"><marker id="Arrow2Lstart" orient="auto" refX="0" refY="0" style="overflow:visible"><path id="path6500" d="M 8.7185878,4.0337352 L -2.2072895,0.016013256 L 8.7185884,-4.0017078 C 6.9730900,-1.6296469 6.9831476,1.6157441 8.7185878,4.0337352 z" transform="scale(1.1) translate(1,0)" style="font-size:12;fill-rule:evenodd;stroke-width:.625;stroke-linejoin:round"/></marker><marker id="Arrow1Lend" orient="auto" refX="0" refY="0" style="overflow:visible"><path id="path6485" d="M 0.0,0.0 L 5.0,-5.0 L -12.5,0.0 L 5.0,5.0 L 0.0,0.0 z" transform="scale(0.8) rotate(180) translate(12.5,0)" style="fill-rule:evenodd;stroke:#000;stroke-width:1pt;marker-start:none"/></marker><marker id="Arrow1Lstart" orient="auto" refX="0" refY="0" style="overflow:visible"><path id="path6482" d="M 0.0,0.0 L 5.0,-5.0 L -12.5,0.0 L 5.0,5.0 L 0.0,0.0 z" transform="scale(0.8) translate(12.5,0)" style="fill-rule:evenodd;stroke:#000;stroke-width:1pt;marker-start:none"/></marker></defs><metadata id="metadata5388"/><g id="layer1"><rect style="fill:#2313fd;fill-opacity:.15652173;fill-rule:evenodd;stroke:#000;stroke-width:.844289;stroke-linecap:butt;stroke-linejoin:miter;stroke-miterlimit:4;stroke-opacity:1;stroke-dasharray:none" id="rect6175" width="80" height="50" x="50" y="234.094"/><text style="font-size:14px;font-style:normal;font-variant:normal;font-weight:700;font-stretch:normal;text-align:start;line-height:125%;writing-mode:lr-tb;text-anchor:start;opacity:.88919995;fill:#000;fill-opacity:1;stroke:none;font-family:aakar;-inkscape-font-specification:aakar Bold" id="text6187" x="60" y="254.094" xml:space="preserve"><tspan id="tspan6189" x="60" y="254.094">Read</tspan><tspan id="tspan6191" x="60" y="271.594">Descriptor</tspan></text><text style="font-size:14px;font-style:normal;font-variant:normal;font-weight:700;font-stretch:normal;text-align:start;line-height:125%;writing-mode:lr-tb;text-anchor:start;fill:#000;fill-opacity:1;stroke:none;font-family:aakar;-inkscape-font-specification:aakar Medium" id="text6193" x="150" y="254.094" xml:space="preserve"><tspan id="tspan6195" x="150" y="254.094">Write</tspan><tspan id="tspan6197" x="150" y="271.594">Descriptor</tspan></text><text style="font-size:14px;font-style:normal;font-variant:normal;font-weight:700;font-stretch:normal;text-align:start;line-height:125%;writing-mode:lr-tb;text-anchor:start;fill:#000;fill-opacity:1;stroke:none;font-family:aakar;-inkscape-font-specification:aakar Medium" id="text6199" x="240" y="254.094" xml:space="preserve"><tspan id="tspan6201" x="240" y="254.094">Timer</tspan></text><text style="font-size:14px;font-style:normal;font-variant:normal;font-weight:700;font-stretch:normal;text-align:start;line-height:125%;writing-mode:lr-tb;text-anchor:start;fill:#000;fill-opacity:1;stroke:none;font-family:aakar;-inkscape-font-specification:aakar Medium" id="text6203" x="330" y="254.094" xml:space="preserve"><tspan id="tspan6205" x="330" y="254.094">GUI</tspan></text><rect style="fill:#23b049;fill-opacity:.15652173;fill-rule:evenodd;stroke:#000;stroke-width:.8364085;stroke-linecap:butt;stroke-linejoin:miter;stroke-miterlimit:4;stroke-opacity:1;stroke-dasharray:none" id="rect6175-0" width="78.514" height="50" x="141.486" y="234.094"/><rect style="fill:#ecf621;fill-opacity:.15652173;fill-rule:evenodd;stroke:#000;stroke-width:.8364085;stroke-linecap:butt;stroke-linejoin:miter;stroke-miterlimit:4;stroke-opacity:1;stroke-dasharray:none" id="rect6175-0-9" width="78.514" height="50" x="231.486" y="234.094"/><rect style="fill:#1f4731;fill-opacity:.15686275;fill-rule:evenodd;stroke:#000;stroke-width:.8364085;stroke-linecap:butt;stroke-linejoin:miter;stroke-miterlimit:4;stroke-opacity:1;stroke-dasharray:none" id="rect6175-0-9-2" width="78.514" height="50" x="320" y="234.094"/><rect style="opacity:.88919994999999996;fill:#1f4731;fill-opacity:.02352941;stroke:#000;stroke-width:.99921262;stroke-miterlimit:4;stroke-opacity:1;stroke-dasharray:none" id="rect6277" width="370" height="100" x="40" y="194.094"/><text style="font-size:18px;font-style:normal;font-variant:normal;font-weight:700;font-stretch:normal;text-align:start;line-height:100%;writing-mode:lr;text-anchor:start;fill:#000;fill-opacity:1;stroke:none;font-family:aakar;-inkscape-font-specification:aakar Bold" id="text6279" x="160" y="214.094" xml:space="preserve"><tspan id="tspan6283">Reactor</tspan></text><path style="opacity:.88919995;fill:#ae7313;fill-opacity:.05652173;stroke:#000;stroke-width:.99921262;stroke-miterlimit:4;stroke-opacity:1;stroke-dasharray:none" id="path6285" d="m 170,364.09448 a 60,30 0 1 1 -120,0 60,30 0 1 1 120,0 z" transform="matrix(0.52083332,0,0,0.83333333,21.458335,85.682414)"/><rect style="opacity:.88919994999999996;fill:#1f4731;fill-opacity:.02352941;stroke:#000;stroke-width:1.63170730999999991;stroke-miterlimit:4;stroke-opacity:1;stroke-dasharray:none" id="rect6293" width="240" height="240" x="20" y="324.094"/><text style="font-size:18px;font-style:normal;font-variant:normal;font-weight:700;font-stretch:normal;text-align:start;line-height:100%;writing-mode:lr-tb;text-anchor:start;fill:#000;fill-opacity:1;stroke:none;font-family:aakar;-inkscape-font-specification:aakar Bold" id="text6295" x="30" y="344.094" xml:space="preserve"><tspan id="tspan6297" x="30" y="344.094">Protocols</tspan></text><text style="font-size:12px;font-style:normal;font-variant:normal;font-weight:700;font-stretch:normal;text-align:start;line-height:125%;writing-mode:lr-tb;text-anchor:start;fill:#000;fill-opacity:1;stroke:none;font-family:aakar;-inkscape-font-specification:aakar Medium" id="text6299" x="60" y="394.094" xml:space="preserve"><tspan id="tspan6301" x="60" y="394.094">HTTP</tspan></text><path style="opacity:.88919995;fill:#ae7313;fill-opacity:.05652173;stroke:#000;stroke-width:.99921262;stroke-miterlimit:4;stroke-opacity:1;stroke-dasharray:none" id="path6285-0" d="m 170,364.09448 a 60,30 0 1 1 -120,0 60,30 0 1 1 120,0 z" transform="matrix(0.52083332,0,0,0.83333333,92.708335,205.68241)"/><text style="font-size:12px;font-style:normal;font-variant:normal;font-weight:700;font-stretch:normal;text-align:start;line-height:125%;writing-mode:lr-tb;text-anchor:start;fill:#000;fill-opacity:1;stroke:none;font-family:aakar;-inkscape-font-specification:aakar Medium" id="text6299-9" x="131.25" y="514.094" xml:space="preserve"><tspan id="tspan6301-4" x="131.25" y="514.094">XMPP</tspan></text><path style="opacity:.88919995;fill:#ae7313;fill-opacity:.05652173;stroke:#000;stroke-width:.99921262;stroke-miterlimit:4;stroke-opacity:1;stroke-dasharray:none" id="path6285-8" d="m 170,364.09448 a 60,30 0 1 1 -120,0 60,30 0 1 1 120,0 z" transform="matrix(0.52083332,0,0,0.83333333,22.708335,145.68241)"/><text style="font-size:12px;font-style:normal;font-variant:normal;font-weight:700;font-stretch:normal;text-align:start;line-height:125%;writing-mode:lr-tb;text-anchor:start;fill:#000;fill-opacity:1;stroke:none;font-family:aakar;-inkscape-font-specification:aakar Medium" id="text6299-8" x="61.25" y="454.094" xml:space="preserve"><tspan id="tspan6301-2" x="61.25" y="454.094">IRC</tspan></text><path style="opacity:.88919995;fill:#ae7313;fill-opacity:.05652173;stroke:#000;stroke-width:.99921262;stroke-miterlimit:4;stroke-opacity:1;stroke-dasharray:none" id="path6285-5" d="m 170,364.09448 a 60,30 0 1 1 -120,0 60,30 0 1 1 120,0 z" transform="matrix(0.52083332,0,0,0.83333333,92.708335,85.682415)"/><text style="font-size:12px;font-style:normal;font-variant:normal;font-weight:700;font-stretch:normal;text-align:start;line-height:125%;writing-mode:lr-tb;text-anchor:start;fill:#000;fill-opacity:1;stroke:none;font-family:aakar;-inkscape-font-specification:aakar Medium" id="text6299-4" x="131.25" y="394.094" xml:space="preserve"><tspan id="tspan6301-9" x="131.25" y="394.094">DNS</tspan></text><path style="opacity:.88919995;fill:#ae7313;fill-opacity:.05652173;stroke:#000;stroke-width:.99921262;stroke-miterlimit:4;stroke-opacity:1;stroke-dasharray:none" id="path6285-4" d="m 170,364.09448 a 60,30 0 1 1 -120,0 60,30 0 1 1 120,0 z" transform="matrix(0.52083332,0,0,0.83333333,162.70833,85.682415)"/><text style="font-size:12px;font-style:normal;font-variant:normal;font-weight:700;font-stretch:normal;text-align:start;line-height:125%;writing-mode:lr-tb;text-anchor:start;fill:#000;fill-opacity:1;stroke:none;font-family:aakar;-inkscape-font-specification:aakar Medium" id="text6299-46" x="201.25" y="394.094" xml:space="preserve"><tspan id="tspan6301-6" x="201.25" y="394.094">SMTP</tspan></text><path style="opacity:.88919995;fill:#ae7313;fill-opacity:.05652173;stroke:#000;stroke-width:.99921262;stroke-miterlimit:4;stroke-opacity:1;stroke-dasharray:none" id="path6285-46" d="m 170,364.09448 a 60,30 0 1 1 -120,0 60,30 0 1 1 120,0 z" transform="matrix(0.52083332,0,0,0.83333333,92.708335,145.68241)"/><text style="font-size:12px;font-style:normal;font-variant:normal;font-weight:700;font-stretch:normal;text-align:start;line-height:125%;writing-mode:lr-tb;text-anchor:start;fill:#000;fill-opacity:1;stroke:none;font-family:aakar;-inkscape-font-specification:aakar Medium" id="text6299-7" x="131.25" y="454.094" xml:space="preserve"><tspan id="tspan6301-8" x="131.25" y="454.094">TELNET</tspan></text><path style="opacity:.88919995;fill:#ae7313;fill-opacity:.05652173;stroke:#000;stroke-width:.99921262;stroke-miterlimit:4;stroke-opacity:1;stroke-dasharray:none" id="path6285-6" d="m 170,364.09448 a 60,30 0 1 1 -120,0 60,30 0 1 1 120,0 z" transform="matrix(0.52083332,0,0,0.83333333,22.708335,205.68241)"/><text style="font-size:12px;font-style:normal;font-variant:normal;font-weight:700;font-stretch:normal;text-align:start;line-height:125%;writing-mode:lr-tb;text-anchor:start;fill:#000;fill-opacity:1;stroke:none;font-family:aakar;-inkscape-font-specification:aakar Medium" id="text6299-77" x="61.25" y="514.094" xml:space="preserve"><tspan id="tspan6301-5" x="61.25" y="514.094">SSH</tspan></text><path style="opacity:.88919995;fill:#ae7313;fill-opacity:.05652173;stroke:#000;stroke-width:.99921262;stroke-miterlimit:4;stroke-opacity:1;stroke-dasharray:none" id="path6285-1" d="m 170,364.09448 a 60,30 0 1 1 -120,0 60,30 0 1 1 120,0 z" transform="matrix(0.52083332,0,0,0.83333333,162.70833,145.68241)"/><text style="font-size:12px;font-style:normal;font-variant:normal;font-weight:700;font-stretch:normal;text-align:start;line-height:125%;writing-mode:lr-tb;text-anchor:start;fill:#000;fill-opacity:1;stroke:none;font-family:aakar;-inkscape-font-specification:aakar Medium" id="text6299-3" x="201.25" y="454.094" xml:space="preserve"><tspan id="tspan6301-54" x="201.25" y="454.094">POP3</tspan></text><path style="opacity:.88919995;fill:#ae7313;fill-opacity:.05652173;stroke:#000;stroke-width:.99921262;stroke-miterlimit:4;stroke-opacity:1;stroke-dasharray:none" id="path6285-06" d="m 170,364.09448 a 60,30 0 1 1 -120,0 60,30 0 1 1 120,0 z" transform="matrix(0.52083332,0,0,0.83333333,162.70833,205.68241)"/><text style="font-size:18px;font-style:normal;font-variant:normal;font-weight:700;font-stretch:normal;text-align:start;line-height:125%;writing-mode:lr-tb;text-anchor:start;fill:#000;fill-opacity:1;stroke:none;font-family:aakar;-inkscape-font-specification:aakar Bold" id="text6299-31" x="198.75" y="509.094" xml:space="preserve"><tspan id="tspan6463" x="198.75" y="509.094">...</tspan></text><path style="fill:none;stroke:#000;stroke-width:.93543306999999998;stroke-linecap:butt;stroke-linejoin:miter;stroke-opacity:1;stroke-miterlimit:4;stroke-dasharray:none;marker-start:none;marker-end:url(#Arrow1Lend);marker-mid:none" id="path6471" d="m 120,274.09448 0,70"/><path style="fill:none;stroke:#000;stroke-width:.93541437px;stroke-linecap:butt;stroke-linejoin:miter;stroke-opacity:1;marker-end:url(#Arrow1Lend)" id="path6475" d="m 210,344.09448 0,-70"/></g></svg>